<svg width="14" height="11" viewBox="0 0 14 11" fill="none" xmlns="http://www.w3.org/2000/svg">
<g clip-path="url(#clip0_3_1498)">
<path d="M7.00009 0.6875C3.61767 0.6875 0.875092 2.84238 0.875092 5.5C0.875092 8.15762 3.61767 10.3125 7.00009 10.3125C10.3825 10.3125 13.1251 8.15762 13.1251 5.5C13.1251 2.84238 10.3825 0.6875 7.00009 0.6875ZM7.00009 9.49609C4.19189 9.49609 1.91415 7.70644 1.91415 5.5C1.91415 3.29355 4.19189 1.50391 7.00009 1.50391C9.80829 1.50391 12.086 3.29355 12.086 5.5C12.086 7.70644 9.80829 9.49609 7.00009 9.49609ZM7.07665 3.77373C7.80126 3.77373 8.29345 4.13682 8.34814 4.66963C8.35224 4.71475 8.40009 4.74912 8.45751 4.74912H9.23271C9.26826 4.74912 9.29697 4.72656 9.29697 4.69863C9.29697 3.76728 8.36181 3.11523 7.07255 3.11523C5.57001 3.11523 4.70322 3.9123 4.70322 5.2293V5.79111C4.70322 7.09844 5.57001 7.88477 7.07255 7.88477C8.35771 7.88477 9.29697 7.25312 9.29697 6.36582C9.29697 6.33789 9.26826 6.31533 9.23271 6.31533H8.45615C8.39872 6.31533 8.35224 6.34971 8.34677 6.39375C8.28935 6.88896 7.79853 7.22949 7.07529 7.22949C6.18251 7.22949 5.67939 6.71494 5.67939 5.79434V5.2293C5.68076 4.29473 6.18525 3.77373 7.07665 3.77373Z" fill="white"/>
</g>
<defs>
<clipPath id="clip0_3_1498">
<rect width="14" height="11" fill="white"/>
</clipPath>
</defs>
</svg>
