<svg width="202" height="55" viewBox="0 0 202 55" fill="none" xmlns="http://www.w3.org/2000/svg">
<path d="M17.4828 22.5174C17.4828 12.8447 9.64219 5.02539 0 5.02539V22.5174H17.4828Z" fill="#80D4F0"/>
<path d="M0 22.4666C0 32.1392 7.84063 39.9585 17.4828 39.9585V22.4666H0Z" fill="url(#paint0_linear_102_2)"/>
<path d="M17.559 5C27.2265 5 35.0418 12.8447 35.0418 22.492H17.559V5Z" fill="url(#paint1_linear_102_2)"/>
<path d="M35.0924 39.9077C25.4199 39.9587 17.5593 32.1595 17.5084 22.5174L35.0001 22.4251L35.0924 39.9077Z" fill="#87DBF7"/>
<path d="M76.45 44.55C77.2 44.3 77.65 43.85 78 43.35C78.55 42.6 79 41.8 79.5 41.1C83.1 35.3 86.75 29.65 90.35 23.9C90.6 23.5 90.9 23.4 91.35 23.4C92.75 23.3 94.2 23.1 95.6 23C96 22.95 96.35 22.85 96.9 22.75C95.15 22 93.55 22 91.8 21.8C92.3 21.05 92.7 20.35 93.1 19.8C96.95 14.2 100.75 8.65 104.6 3.1C104.8 2.75 105.1 2.45 105.15 2.15C105.2 1.85 105.1 1.4 104.95 1.3C104.75 1.15 104.3 1.15 104.1 1.2C103.8 1.35 103.6 1.55 103.3 1.8C101.8 3.3 100.3 4.75 98.75 6.25C93.15 11.4 87.55 16.5 81.9 21.65C81.45 22.1 80.9 22.35 80.25 22.35C77.75 22.4 75.3 22.5 72.85 22.6C69.9 22.8 67 22.95 64.05 23.2C61.05 23.35 58.05 23.55 55.05 23.8C54.8 23.85 54.55 23.9 54.3 24C54.15 24.1 53.9 24.3 53.95 24.45C54.05 24.65 54.2 24.9 54.35 25C54.75 25.1 55.2 25.15 55.65 25.1C58.05 25 60.55 24.75 62.95 24.6C67.9 24.35 72.75 24.15 77.7 23.9C78.2 23.9 78.7 23.85 79.45 23.8C79.05 24.2 78.85 24.55 78.55 24.75C75.9 27 73.3 29.3 70.7 31.65C70.2 32.1 69.7 32.5 69.2 33C69.05 33.1 69.1 33.45 69 33.65C69.3 33.65 69.5 33.8 69.7 33.65C70.3 33.3 70.95 32.9 71.5 32.45C74.55 29.8 77.65 27.15 80.65 24.4C81.25 23.95 81.8 23.75 82.55 23.7C84.25 23.7 86 23.5 87.75 23.45C88.05 23.45 88.35 23.45 88.75 23.45C88.55 23.9 88.35 24.15 88.2 24.4C86 27.8 83.85 31.1 81.7 34.45C80.1 37 78.65 39.55 77.2 42.1C76.75 42.8 76.45 43.55 76.45 44.55ZM83.6 21.95C88.95 17 94.4 12.05 99.7 7.2C99.75 7.2 99.8 7.2 99.8 7.25C99.1 8.35 98.3 9.5 97.5 10.6C95.15 14.1 92.75 17.6 90.4 21.15C90 21.7 89.55 21.95 88.9 21.95C87.15 21.95 85.45 22.05 83.7 22.1C83.65 22.05 83.6 22 83.6 21.95ZM107.679 24.85C108.829 24.25 107.929 22.6 106.579 24.05C105.529 25.2 99.9785 28.1 101.979 24C102.629 22.9 103.329 21.9 103.979 20.85C105.029 19.45 103.429 18.55 102.779 19.4C101.929 20.55 101.379 22.15 100.629 23.35C100.279 23.8 100.229 24.45 100.229 25C100.079 25.85 100.579 26.7 101.479 26.85C101.979 26.95 102.579 26.9 103.079 26.85C104.729 26.45 106.229 25.65 107.679 24.85ZM106.479 15.4C105.329 15.4 104.779 16.3 104.679 17.1C104.429 18.35 104.779 18.4 105.729 17.85C106.379 17.45 107.079 16.75 107.229 16.25C107.329 15.8 107.029 15.4 106.479 15.4ZM115.918 25.25C118.968 25.4 119.518 23.55 117.618 23.7C117.268 23.7 116.868 23.75 116.568 23.75C115.768 23.8 115.518 23.65 115.368 22.9C115.268 22.45 115.218 21.95 115.068 21.45C114.768 20.5 114.118 20.1 113.118 20.35C112.668 20.4 112.168 20.6 111.768 20.95C111.168 21.35 110.618 21.9 109.968 22.4C109.868 22.5 109.668 22.65 109.468 22.8C109.818 21.85 110.218 21 110.668 20.15C110.768 19.9 110.868 19.6 110.868 19.3C110.918 19.1 110.768 18.85 110.618 18.75C110.468 18.65 110.168 18.75 110.068 18.85C109.818 19.1 109.568 19.45 109.418 19.75C108.168 22 106.968 24.3 105.718 26.55C105.618 26.8 105.418 27 105.418 27.3C105.418 28.45 106.818 28 107.268 27C107.868 25.85 108.818 24.7 109.968 23.75C110.718 23.05 112.968 20.65 113.818 22.55C114.118 23.7 114.318 25.15 115.918 25.25ZM124.06 23.65C124.26 23.2 124.41 22.9 124.56 22.6C124.66 22 124.96 21.4 124.96 20.9C125.01 19.8 124.36 19.3 123.26 19.4C122.46 19.45 121.91 19.8 121.36 20.2C120.06 21.25 118.81 22.3 117.96 23.65C115.51 27.55 117.36 28.75 119.16 28.2C120.41 27.8 121.11 26.9 122.51 25.6C122.76 25.3 123.06 25.15 123.41 25.1C124.61 24.85 125.86 24.7 127.11 24.45C127.76 24.4 128.31 24.3 128.96 24.15C129.11 24.15 129.46 23.85 129.46 23.75C129.51 23.5 129.31 23.2 129.11 23.1C128.81 23 128.71 23 128.36 23C127.76 23.1 126.86 23.2 126.31 23.3C125.61 23.45 124.86 23.5 124.06 23.65ZM119.26 23.9C119.46 24.85 120.16 25.15 121.21 25.15C119.91 28 116.96 26.65 119.26 23.9ZM123.51 20.6C123.51 21 123.61 21.3 123.51 21.4C123.31 22 123.01 22.7 122.61 23.25C122.36 23.8 121.46 23.85 121.06 23.45C120.71 23.2 120.76 22.9 120.91 22.65C121.46 21.7 122.26 21 123.51 20.6ZM132.761 23.45C132.811 23.6 132.911 23.65 132.961 23.75C133.711 23.45 134.061 23.2 134.611 22.55C135.161 21.95 135.411 21.2 135.011 20.45C134.711 19.75 134.011 19.45 133.011 19.6C131.361 19.8 130.011 20.65 128.861 21.85C128.061 22.75 128.061 23.85 128.811 24.8C129.161 25.25 129.611 25.65 130.061 26.05C130.261 26.3 130.511 26.45 130.711 26.65C128.411 27.4 126.611 28.45 125.011 29.75C124.761 29.95 124.411 30.05 124.511 30.35C124.561 30.65 124.761 31 125.011 31.05C125.461 31.15 125.961 31.2 126.411 31.15C128.111 30.95 129.611 30.25 131.011 29.35C131.561 28.95 132.061 28.45 132.361 27.9C133.261 26.55 137.011 25.6 138.811 24.8C139.261 24.65 139.811 24.5 140.011 23.9C139.861 23.45 139.511 23.4 139.161 23.4C138.761 23.45 138.411 23.6 138.061 23.8C136.161 24.9 134.261 25.45 132.361 26.3C131.611 25.7 130.861 24.95 130.211 24.3C129.011 23.3 130.711 21.55 131.711 20.95C133.961 19.65 134.011 22.3 132.761 23.45ZM126.811 29.6C127.661 28.45 129.661 27.9 130.911 27.9C129.111 29.65 125.911 31.2 126.811 29.6Z" fill="white"/>
<defs>
<linearGradient id="paint0_linear_102_2" x1="8.64594" y1="45.1782" x2="21.6149" y2="12.8831" gradientUnits="userSpaceOnUse">
<stop stop-color="#80D4F0"/>
<stop offset="1" stop-color="white" stop-opacity="0"/>
</linearGradient>
<linearGradient id="paint1_linear_102_2" x1="20.852" y1="-1.10302" x2="38.6524" y2="26.3606" gradientUnits="userSpaceOnUse">
<stop stop-color="#00BDF9"/>
<stop offset="1" stop-color="white" stop-opacity="0"/>
</linearGradient>
</defs>
</svg>
