<svg width="20" height="20" viewBox="0 0 20 20" fill="none" xmlns="http://www.w3.org/2000/svg">
<g clip-path="url(#clip0_3_1492)">
<path d="M2.06894 2.16932C0.631559 3.66234 0.925743 5.24834 0.925743 10.0666C0.925743 14.0678 0.227628 18.0789 3.8813 19.0232C5.02221 19.3166 15.1312 19.3166 16.2705 19.0216C17.7918 18.6291 19.0295 17.3952 19.1987 15.2437C19.2223 14.9434 19.2223 5.19499 19.1979 4.88862C19.018 2.59688 17.6073 1.2761 15.7485 1.00859C15.3225 0.946858 15.2371 0.928567 13.0513 0.924756C5.29811 0.928567 3.59855 0.58332 2.06894 2.16932Z" fill="#87DBF7"/>
<path d="M10.0684 3.31706C7.30108 3.31706 4.67325 3.0709 3.66952 5.64691C3.25491 6.71085 3.31512 8.0926 3.31512 10.0711C3.31512 11.8072 3.25949 13.439 3.66952 14.4945C4.67096 17.0721 7.32014 16.8251 10.0669 16.8251C12.7168 16.8251 15.4491 17.101 16.465 14.4945C16.8804 13.4199 16.8194 12.0587 16.8194 10.0711C16.8194 7.43259 16.9649 5.72922 15.6853 4.45036C14.3897 3.15473 12.6375 3.31706 10.0653 3.31706H10.0684ZM9.46326 4.53419C15.2357 4.52505 15.9704 3.88333 15.5649 12.798C15.4209 15.951 13.0201 15.605 10.0692 15.605C4.68849 15.605 4.53378 15.451 4.53378 10.068C4.53378 4.6226 4.96057 4.53724 9.46326 4.53267V4.53419ZM13.6733 5.65529C13.2259 5.65529 12.8631 6.01807 12.8631 6.46544C12.8631 6.91281 13.2259 7.27559 13.6733 7.27559C14.1207 7.27559 14.4834 6.91281 14.4834 6.46544C14.4834 6.01807 14.1207 5.65529 13.6733 5.65529ZM10.0684 6.60263C8.15315 6.60263 6.60068 8.15586 6.60068 10.0711C6.60068 11.9863 8.15315 13.5388 10.0684 13.5388C11.9836 13.5388 13.5353 11.9863 13.5353 10.0711C13.5353 8.15586 11.9836 6.60263 10.0684 6.60263ZM10.0684 7.81975C13.0445 7.81975 13.0483 12.3224 10.0684 12.3224C7.09302 12.3224 7.08845 7.81975 10.0684 7.81975Z" fill="white"/>
</g>
<defs>
<clipPath id="clip0_3_1492">
<rect width="18.2912" height="18.2912" fill="white" transform="translate(0.924316 0.924805)"/>
</clipPath>
</defs>
</svg>
