<svg width="16" height="16" viewBox="0 0 16 16" fill="none" xmlns="http://www.w3.org/2000/svg">
<g clip-path="url(#clip0_3_1482)">
<path d="M15.805 15.8077V15.807H15.8089V10.1308C15.8089 7.35392 15.2111 5.21484 11.9647 5.21484C10.4041 5.21484 9.35682 6.07125 8.92926 6.88316H8.88412V5.47409H5.80609V15.807H9.01116V10.6905C9.01116 9.34338 9.26653 8.04072 10.9348 8.04072C12.5786 8.04072 12.6032 9.57812 12.6032 10.777V15.8077H15.805Z" fill="#87DBF7"/>
<path d="M0.58728 5.47461H3.79622V15.8076H0.58728V5.47461Z" fill="#87DBF7"/>
<path d="M2.19016 0.331055C1.16415 0.331055 0.331604 1.1636 0.331604 2.18961C0.331604 3.21562 1.16415 4.06557 2.19016 4.06557C3.21616 4.06557 4.04871 3.21562 4.04871 2.18961C4.04806 1.1636 3.21552 0.331055 2.19016 0.331055V0.331055Z" fill="#87DBF7"/>
</g>
<defs>
<clipPath id="clip0_3_1482">
<rect width="15.4772" height="15.4772" fill="white" transform="translate(0.331604 0.331055)"/>
</clipPath>
</defs>
</svg>
